<svg xmlns="http://www.w3.org/2000/svg" version="1.1" xmlns:xlink="http://www.w3.org/1999/xlink" xmlns:svgjs="http://svgjs.dev/svgjs" width="1500" height="1500" viewBox="0 0 1500 1500"><rect width="1500" height="1500" fill="#000000"></rect><g transform="matrix(0.6666666666666666,0,0,0.6666666666666666,250.70448484617702,244.40971659919023)"><svg viewBox="0 0 244 247" data-background-color="#d9e3f1" preserveAspectRatio="xMidYMid meet" height="1518" width="1500" xmlns="http://www.w3.org/2000/svg" xmlns:xlink="http://www.w3.org/1999/xlink"><g id="tight-bounds" transform="matrix(1,0,0,1,-0.1718943024671944,-0.09999999999999432)"><svg viewBox="0 0 244.34378860493436 247.2" height="247.2" width="244.34378860493436"><g><svg viewBox="0 0 395.52 400.1433576774193" height="247.2" width="244.34378860493436"><g transform="matrix(1,0,0,1,0,247.304648)"><svg viewBox="0 0 395.52 152.83870967741933" height="152.83870967741933" width="395.52"><g id="textblocktransform"><svg viewBox="0 0 395.52 152.83870967741933" height="152.83870967741933" width="395.52" id="textblock"><g><svg viewBox="0 0 395.52 152.83870967741933" height="152.83870967741933" width="395.52"><g transform="matrix(1,0,0,1,0,0)"><svg width="395.52" viewBox="0.5 -28.75 74.4 28.75" height="152.83870967741933" data-palette-color="#0080ff"><path d="M6.2-28.75L6.2-28.75 16.5-11.5 16.5 0 0.5-26.9 6.2-28.75ZM29.3-28.75L29.3-28.75 18.95-11.5 18.95 0 34.95-26.9 29.3-28.75ZM40.45 0L40.45-28.75 56.45-28.75 56.45-23.1 46.75-23.1 46.75-17.2 56.45-17.2 56.45-11.5 46.75-11.5 46.75-5.85 56.45-5.85 56.45 0 40.45 0ZM69.25 0L74.9-3.4 74.9-12.15 70.2-14.35 74.9-16.6 74.9-25.3 69.25-28.75 58.9-28.75 58.9-23.1 68.6-23.1 68.6-17.2 58.9-17.2 58.9-11.5 68.6-11.5 68.6-5.85 58.9-5.85 58.9 0 69.25 0Z" opacity="1" transform="matrix(1,0,0,1,0,0)" fill="#ffffff" class="wordmark-text-0" data-fill-palette-color="primary" id="text-0"></path></svg></g></svg></g></svg></g></svg></g><g transform="matrix(1,0,0,1,92.14845161290323,0)"><svg viewBox="0 0 211.22309677419352 211.22309677419352" height="211.22309677419352" width="211.22309677419352"><g><svg xmlns="http://www.w3.org/2000/svg" xmlns:xlink="http://www.w3.org/1999/xlink" version="1.1" x="0" y="0" viewBox="5 5 90 90" enable-background="new 0 0 100 100" xml:space="preserve" height="211.22309677419352" width="211.22309677419352" class="icon-icon-0" data-fill-palette-color="accent" id="icon-0"><path fill="#ffffff" d="M95 52c0-12.871-5.692-24.431-14.682-32.318C72.431 10.692 60.871 5 48 5 24.29 5 5 24.29 5 48c0 12.868 5.69 24.426 14.677 32.313C27.564 89.306 39.126 95 52 95c0.084 0 0.166-0.006 0.25-0.006S52.416 95 52.5 95C75.972 95 95 75.972 95 52.5c0-0.084-0.006-0.166-0.006-0.25S95 52.084 95 52zM21.828 73.371c-4.245-5.978-6.77-13.259-6.822-21.121 0.135-20.511 16.732-37.109 37.244-37.244 7.862 0.052 15.144 2.577 21.121 6.822C80.224 28.473 84.5 37.758 84.5 48c0 20.126-16.374 36.5-36.5 36.5C37.758 84.5 28.473 80.224 21.828 73.371zM6 48C6 24.841 24.841 6 48 6c9.858 0 18.926 3.422 26.1 9.13C67.637 11.242 60.076 9 52 9 28.29 9 9 28.29 9 52c0 8.074 2.241 15.633 6.127 22.095C9.421 66.923 6 57.856 6 48zM52 89c-10.08 0-19.227-4.055-25.905-10.615C32.269 82.854 39.838 85.5 48 85.5c20.678 0 37.5-16.822 37.5-37.5 0-8.162-2.646-15.731-7.115-21.905C84.945 32.773 89 41.92 89 52 89 72.402 72.402 89 52 89z" data-fill-palette-color="accent"></path></svg></g></svg></g><g></g></svg></g><defs></defs></svg><rect width="244.34378860493436" height="247.2" fill="none" stroke="none" visibility="hidden"></rect></g></svg></g></svg>