<?xml version="1.0" encoding="UTF-8"?>
<svg xmlns="http://www.w3.org/2000/svg" xmlns:xlink="http://www.w3.org/1999/xlink" width="32px" height="32px" viewBox="0 0 32 32" version="1.1">
<defs>
<clipPath id="clip1">
  <path d="M 0.0234375 19.792969 L 32 19.792969 L 32 32 L 0.0234375 32 Z M 0.0234375 19.792969 "/>
</clipPath>
<clipPath id="clip2">
  <path d="M 7.46875 0.0117188 L 24.578125 0.0117188 L 24.578125 16.90625 L 7.46875 16.90625 Z M 7.46875 0.0117188 "/>
</clipPath>
</defs>
<g id="surface1">
<g clip-path="url(#clip1)" clip-rule="nonzero">
<path style=" stroke:none;fill-rule:nonzero;fill:rgb(0%,50.196078%,100%);fill-opacity:1;" d="M 2.460938 19.792969 L 6.894531 27.132812 L 6.894531 32.027344 L 0.00390625 20.582031 Z M 12.40625 19.792969 L 7.949219 27.132812 L 7.949219 32.027344 L 14.839844 20.582031 Z M 17.207031 32.027344 L 17.207031 19.792969 L 24.097656 19.792969 L 24.097656 22.199219 L 19.917969 22.199219 L 19.917969 24.707031 L 24.097656 24.707031 L 24.097656 27.132812 L 19.917969 27.132812 L 19.917969 29.535156 L 24.097656 29.535156 L 24.097656 32.027344 Z M 29.609375 32.027344 L 32.039062 30.578125 L 32.039062 26.855469 L 30.015625 25.921875 L 32.039062 24.964844 L 32.039062 21.261719 L 29.609375 19.792969 L 25.152344 19.792969 L 25.152344 22.199219 L 29.328125 22.199219 L 29.328125 24.707031 L 25.152344 24.707031 L 25.152344 27.132812 L 29.328125 27.132812 L 29.328125 29.535156 L 25.152344 29.535156 L 25.152344 32.027344 Z M 29.609375 32.027344 "/>
</g>
<g clip-path="url(#clip2)" clip-rule="nonzero">
<path style=" stroke:none;fill-rule:nonzero;fill:rgb(0.392157%,4.705882%,50.196078%);fill-opacity:1;" d="M 24.578125 8.828125 C 24.578125 6.410156 23.496094 4.238281 21.785156 2.757812 C 20.285156 1.070312 18.089844 0 15.640625 0 C 11.136719 0 7.46875 3.625 7.46875 8.078125 C 7.46875 10.496094 8.550781 12.664062 10.257812 14.148438 C 11.757812 15.835938 13.957031 16.90625 16.402344 16.90625 C 16.417969 16.90625 16.433594 16.90625 16.449219 16.90625 C 16.464844 16.90625 16.480469 16.90625 16.496094 16.90625 C 20.960938 16.90625 24.578125 13.332031 24.578125 8.921875 C 24.578125 8.90625 24.574219 8.890625 24.574219 8.875 C 24.574219 8.859375 24.578125 8.84375 24.578125 8.828125 Z M 10.667969 12.84375 C 9.859375 11.71875 9.378906 10.351562 9.371094 8.875 C 9.394531 5.023438 12.550781 1.90625 16.449219 1.878906 C 17.945312 1.890625 19.328125 2.363281 20.464844 3.160156 C 21.769531 4.410156 22.582031 6.152344 22.582031 8.078125 C 22.582031 11.859375 19.46875 14.933594 15.640625 14.933594 C 13.695312 14.933594 11.929688 14.128906 10.667969 12.84375 Z M 7.660156 8.078125 C 7.660156 3.726562 11.238281 0.1875 15.640625 0.1875 C 17.515625 0.1875 19.238281 0.832031 20.605469 1.902344 C 19.375 1.171875 17.9375 0.75 16.402344 0.75 C 11.894531 0.75 8.230469 4.375 8.230469 8.828125 C 8.230469 10.34375 8.65625 11.765625 9.394531 12.980469 C 8.308594 11.632812 7.660156 9.929688 7.660156 8.078125 Z M 16.402344 15.777344 C 14.488281 15.777344 12.746094 15.015625 11.476562 13.785156 C 12.652344 14.625 14.089844 15.121094 15.640625 15.121094 C 19.574219 15.121094 22.769531 11.960938 22.769531 8.078125 C 22.769531 6.542969 22.269531 5.121094 21.417969 3.960938 C 22.664062 5.21875 23.4375 6.933594 23.4375 8.828125 C 23.4375 12.660156 20.28125 15.777344 16.402344 15.777344 Z M 16.402344 15.777344 "/>
</g>
</g>
</svg>
